HIERARCHY
ROOT mixamorig:Hips
{
	OFFSET 0.000000 201.639420 0.000000
	CHANNELS 6 Xposition Yposition Zposition Xrotation Yrotation Zrotation
	JOINT mixamorig:Spine
	{
		OFFSET 0.006200 19.524994 -2.481800
		CHANNELS 3 Xrotation Yrotation Zrotation
		JOINT mixamorig:Spine1
		{
			OFFSET -0.000900 22.835007 -2.825400
			CHANNELS 3 Xrotation Yrotation Zrotation
			JOINT mixamorig:Spine2
			{
				OFFSET -0.020600 26.552490 -3.193300
				CHANNELS 3 Xrotation Yrotation Zrotation
				JOINT mixamorig:Neck
				{
					OFFSET -0.060000 30.701813 1.352200
					CHANNELS 3 Xrotation Yrotation Zrotation
					JOINT mixamorig:Head
					{
						OFFSET -0.087200 22.547607 3.670900
						CHANNELS 3 Xrotation Yrotation Zrotation
						JOINT mixamorig:HeadTop_End
						{
							OFFSET -0.830600 40.355194 7.893500
							CHANNELS 3 Xrotation Yrotation Zrotation
							End Site
							{
								OFFSET 0.000000 30.592346 0.000000
							}
						}
						JOINT mixamorig:RightEye
						{
							OFFSET -6.302100 18.118591 16.197100
							CHANNELS 3 Xrotation Yrotation Zrotation
							End Site
							{
								OFFSET 0.000000 30.592346 0.000000
							}
						}
						JOINT mixamorig:LeftEye
						{
							OFFSET 6.741500 18.382690 16.401899
							CHANNELS 3 Xrotation Yrotation Zrotation
							End Site
							{
								OFFSET 0.000000 30.592346 0.000000
							}
						}
					}
				}
				JOINT mixamorig:LeftShoulder
				{
					OFFSET 11.924900 18.230499 1.425400
					CHANNELS 3 Xrotation Yrotation Zrotation
					JOINT mixamorig:LeftArm
					{
						OFFSET 25.435989 -0.697632 -5.229300
						CHANNELS 3 Xrotation Yrotation Zrotation
						JOINT mixamorig:LeftForeArm
						{
							OFFSET 54.684776 0.000000 0.000000
							CHANNELS 3 Xrotation Yrotation Zrotation
							JOINT mixamorig:LeftHand
							{
								OFFSET 55.098175 0.000000 0.000000
								CHANNELS 3 Xrotation Yrotation Zrotation
								JOINT mixamorig:LeftHandMiddle1
								{
									OFFSET 23.369751 0.000000 0.000000
									CHANNELS 3 Xrotation Yrotation Zrotation
									JOINT mixamorig:LeftHandMiddle2
									{
										OFFSET 6.378677 0.000000 0.000000
										CHANNELS 3 Xrotation Yrotation Zrotation
										JOINT mixamorig:LeftHandMiddle3
										{
											OFFSET 6.148331 0.000000 0.000000
											CHANNELS 3 Xrotation Yrotation Zrotation
											JOINT mixamorig:LeftHandMiddle4
											{
												OFFSET 6.582504 0.000000 0.000000
												CHANNELS 3 Xrotation Yrotation Zrotation
												End Site
												{
													OFFSET -1.168900 6.395691 1.028606
												}
											}
										}
									}
								}
								JOINT mixamorig:LeftHandThumb1
								{
									OFFSET 7.235672 -3.848206 5.434273
									CHANNELS 3 Xrotation Yrotation Zrotation
									JOINT mixamorig:LeftHandThumb2
									{
										OFFSET 6.568451 -3.792297 3.792300
										CHANNELS 3 Xrotation Yrotation Zrotation
										JOINT mixamorig:LeftHandThumb3
										{
											OFFSET 6.063080 -3.500519 3.500518
											CHANNELS 3 Xrotation Yrotation Zrotation
											JOINT mixamorig:LeftHandThumb4
											{
												OFFSET 4.793182 -2.767334 2.767349
												CHANNELS 3 Xrotation Yrotation Zrotation
												End Site
												{
													OFFSET 0.101639 6.054260 1.275483
												}
											}
										}
									}
								}
								JOINT mixamorig:LeftHandIndex1
								{
									OFFSET 23.101074 -0.309540 4.992809
									CHANNELS 3 Xrotation Yrotation Zrotation
									JOINT mixamorig:LeftHandIndex2
									{
										OFFSET 6.226883 0.000000 0.000000
										CHANNELS 3 Xrotation Yrotation Zrotation
										JOINT mixamorig:LeftHandIndex3
										{
											OFFSET 6.094330 0.000000 0.000000
											CHANNELS 3 Xrotation Yrotation Zrotation
											JOINT mixamorig:LeftHandIndex4
											{
												OFFSET 5.482605 0.000000 0.000000
												CHANNELS 3 Xrotation Yrotation Zrotation
												End Site
												{
													OFFSET -1.427902 5.233032 0.797164
												}
											}
										}
									}
								}
								JOINT mixamorig:LeftHandRing1
								{
									OFFSET 22.299240 0.021149 -3.964172
									CHANNELS 3 Xrotation Yrotation Zrotation
									JOINT mixamorig:LeftHandRing2
									{
										OFFSET 6.321869 0.000000 0.000000
										CHANNELS 3 Xrotation Yrotation Zrotation
										JOINT mixamorig:LeftHandRing3
										{
											OFFSET 5.899796 0.000000 0.000000
											CHANNELS 3 Xrotation Yrotation Zrotation
											JOINT mixamorig:LeftHandRing4
											{
												OFFSET 6.517899 0.000000 0.000000
												CHANNELS 3 Xrotation Yrotation Zrotation
												End Site
												{
													OFFSET -1.637299 6.232208 0.980890
												}
											}
										}
									}
								}
								JOINT mixamorig:LeftHandPinky1
								{
									OFFSET 20.463791 -0.302338 -8.562233
									CHANNELS 3 Xrotation Yrotation Zrotation
									JOINT mixamorig:LeftHandPinky2
									{
										OFFSET 6.908646 0.000000 0.000000
										CHANNELS 3 Xrotation Yrotation Zrotation
										JOINT mixamorig:LeftHandPinky3
										{
											OFFSET 4.622849 0.000000 0.000000
											CHANNELS 3 Xrotation Yrotation Zrotation
											JOINT mixamorig:LeftHandPinky4
											{
												OFFSET 5.216080 0.000000 0.000000
												CHANNELS 3 Xrotation Yrotation Zrotation
												End Site
												{
													OFFSET -0.606308 5.116241 0.814926
												}
											}
										}
									}
								}
							}
						}
					}
				}
				JOINT mixamorig:RightShoulder
				{
					OFFSET -12.001300 18.284088 1.348900
					CHANNELS 3 Xrotation Yrotation Zrotation
					JOINT mixamorig:RightArm
					{
						OFFSET -25.308500 -0.751312 -5.164599
						CHANNELS 3 Xrotation Yrotation Zrotation
						JOINT mixamorig:RightForeArm
						{
							OFFSET -54.684429 0.000000 0.000000
							CHANNELS 3 Xrotation Yrotation Zrotation
							JOINT mixamorig:RightHand
							{
								OFFSET -55.150291 0.000000 0.000000
								CHANNELS 3 Xrotation Yrotation Zrotation
								JOINT mixamorig:RightHandMiddle1
								{
									OFFSET -23.317566 0.000000 0.000000
									CHANNELS 3 Xrotation Yrotation Zrotation
									JOINT mixamorig:RightHandMiddle2
									{
										OFFSET -6.378403 0.000000 0.000000
										CHANNELS 3 Xrotation Yrotation Zrotation
										JOINT mixamorig:RightHandMiddle3
										{
											OFFSET -6.148193 0.000000 0.000000
											CHANNELS 3 Xrotation Yrotation Zrotation
											JOINT mixamorig:RightHandMiddle4
											{
												OFFSET -6.583389 0.000000 0.000000
												CHANNELS 3 Xrotation Yrotation Zrotation
												End Site
												{
													OFFSET 1.171692 6.395905 1.029786
												}
											}
										}
									}
								}
								JOINT mixamorig:RightHandThumb1
								{
									OFFSET -7.190521 -3.860474 5.435846
									CHANNELS 3 Xrotation Yrotation Zrotation
									JOINT mixamorig:RightHandThumb2
									{
										OFFSET -6.567429 -3.791718 3.791708
										CHANNELS 3 Xrotation Yrotation Zrotation
										JOINT mixamorig:RightHandThumb3
										{
											OFFSET -6.062469 -3.500153 3.500166
											CHANNELS 3 Xrotation Yrotation Zrotation
											JOINT mixamorig:RightHandThumb4
											{
												OFFSET -4.792618 -2.767029 2.767022
												CHANNELS 3 Xrotation Yrotation Zrotation
												End Site
												{
													OFFSET -0.100327 6.053253 1.276754
												}
											}
										}
									}
								}
								JOINT mixamorig:RightHandIndex1
								{
									OFFSET -23.048981 -0.310791 4.992554
									CHANNELS 3 Xrotation Yrotation Zrotation
									JOINT mixamorig:RightHandIndex2
									{
										OFFSET -6.227539 0.000000 0.000000
										CHANNELS 3 Xrotation Yrotation Zrotation
										JOINT mixamorig:RightHandIndex3
										{
											OFFSET -6.095047 0.000000 0.000000
											CHANNELS 3 Xrotation Yrotation Zrotation
											JOINT mixamorig:RightHandIndex4
											{
												OFFSET -5.484772 0.000000 0.000000
												CHANNELS 3 Xrotation Yrotation Zrotation
												End Site
												{
													OFFSET 1.420593 5.237305 0.797056
												}
											}
										}
									}
								}
								JOINT mixamorig:RightHandRing1
								{
									OFFSET -22.246323 0.020569 -3.963762
									CHANNELS 3 Xrotation Yrotation Zrotation
									JOINT mixamorig:RightHandRing2
									{
										OFFSET -6.322128 0.000000 0.000000
										CHANNELS 3 Xrotation Yrotation Zrotation
										JOINT mixamorig:RightHandRing3
										{
											OFFSET -5.900024 0.000000 0.000000
											CHANNELS 3 Xrotation Yrotation Zrotation
											JOINT mixamorig:RightHandRing4
											{
												OFFSET -6.518356 0.000000 0.000000
												CHANNELS 3 Xrotation Yrotation Zrotation
												End Site
												{
													OFFSET 1.636398 6.232697 0.982186
												}
											}
										}
									}
								}
								JOINT mixamorig:RightHandPinky1
								{
									OFFSET -20.411011 -0.303314 -8.561701
									CHANNELS 3 Xrotation Yrotation Zrotation
									JOINT mixamorig:RightHandPinky2
									{
										OFFSET -6.907349 0.000000 0.000000
										CHANNELS 3 Xrotation Yrotation Zrotation
										JOINT mixamorig:RightHandPinky3
										{
											OFFSET -4.623840 0.000000 0.000000
											CHANNELS 3 Xrotation Yrotation Zrotation
											JOINT mixamorig:RightHandPinky4
											{
												OFFSET -5.218353 0.000000 0.000000
												CHANNELS 3 Xrotation Yrotation Zrotation
												End Site
												{
													OFFSET 0.602097 5.118835 0.816273
												}
											}
										}
									}
								}
							}
						}
					}
				}
			}
		}
	}
	JOINT mixamorig:LeftUpLeg
	{
		OFFSET 18.168400 -13.561905 -0.039000
		CHANNELS 3 Xrotation Yrotation Zrotation
		JOINT mixamorig:LeftLeg
		{
			OFFSET 0.577358 -80.825211 -3.695000
			CHANNELS 3 Xrotation Yrotation Zrotation
			JOINT mixamorig:LeftFoot
			{
				OFFSET -0.577356 -83.370262 -6.520700
				CHANNELS 3 Xrotation Yrotation Zrotation
				JOINT mixamorig:LeftToeBase
				{
					OFFSET 0.750401 -20.798306 25.135401
					CHANNELS 3 Xrotation Yrotation Zrotation
					JOINT mixamorig:LeftToe_End
					{
						OFFSET -0.000500 0.001200 19.917799
						CHANNELS 3 Xrotation Yrotation Zrotation
						End Site
						{
							OFFSET 0.000000 19.917805 0.000000
						}
					}
				}
			}
		}
	}
	JOINT mixamorig:RightUpLeg
	{
		OFFSET -18.162500 -13.585098 -0.041000
		CHANNELS 3 Xrotation Yrotation Zrotation
		JOINT mixamorig:RightLeg
		{
			OFFSET -0.595024 -80.945297 -3.631900
			CHANNELS 3 Xrotation Yrotation Zrotation
			JOINT mixamorig:RightFoot
			{
				OFFSET 0.595024 -83.218193 -6.561200
				CHANNELS 3 Xrotation Yrotation Zrotation
				JOINT mixamorig:RightToeBase
				{
					OFFSET -0.753601 -20.807106 25.115000
					CHANNELS 3 Xrotation Yrotation Zrotation
					JOINT mixamorig:RightToe_End
					{
						OFFSET 0.000299 0.001700 19.918200
						CHANNELS 3 Xrotation Yrotation Zrotation
						End Site
						{
							OFFSET 0.000000 19.918203 0.000000
						}
					}
				}
			}
		}
	}
}
MOTION
Frames: 4
Frame Time: 0.033333
-0.233008 173.921463 -0.152584 -1.661208 -2.995070 -0.201105 1.011817 0.764014 0.234879 3.073218 1.055448 0.668540 3.069589 1.044060 0.698775 1.965744 -0.412266 2.942196 -8.223730 3.343779 -5.916931 0.000000 0.000000 0.000000 0.000000 0.000000 0.000000 0.000000 0.000000 0.000000 -7.093908 13.268191 42.627101 -84.267042 -26.716053 1.767792 -0.000033 -61.005938 -0.000037 -1.218140 -19.191616 6.515953 -2.373841 -1.020001 -27.293059 0.280957 1.794062 -17.797460 0.034154 0.632354 -6.183016 -0.000004 -0.000001 0.000004 -6.116587 -3.608371 17.999253 22.080282 28.246048 -7.275500 -0.756315 -16.860271 7.712559 0.000002 0.000001 0.000002 -2.555540 0.070973 -34.305551 0.219843 1.591430 -15.730482 0.085039 -0.995722 9.764609 0.000001 -0.000001 0.000003 -1.392695 0.356888 -24.305804 0.369217 2.048682 -20.430228 0.220925 1.595234 -15.769160 -0.000004 -0.000000 0.000001 -4.002617 5.324403 -14.459770 0.898020 3.118712 -32.119726 0.116747 1.165011 -11.446157 0.000000 0.000001 -0.000001 -6.345942 -12.351191 -41.069388 -107.596516 26.558190 18.029702 -0.000033 73.398709 0.000032 -9.858345 1.987872 -20.060908 0.166173 -0.834010 -5.471778 0.787258 -2.592917 33.773411 0.185331 -1.302050 16.201243 0.000003 0.000002 -0.000001 -6.360169 -1.807608 -19.814037 9.430474 6.123100 -10.648966 -3.124441 -18.488815 -6.096625 -0.000003 -0.000002 0.000003 0.496993 4.919439 -2.357785 0.925866 -2.788829 36.725388 0.050952 -0.687689 8.473004 0.000001 0.000003 -0.000000 -0.082770 -5.378413 -2.480467 0.219156 -1.413255 17.628807 0.218746 -1.411872 17.611291 -0.000001 0.000002 0.000000 -1.016534 -8.695232 -9.241979 0.298115 -1.641035 20.590555 0.127629 -1.084004 13.430871 -0.000002 -0.000002 -0.000001 -22.083306 1.346860 27.475766 43.497483 -9.099615 10.012513 -15.976904 -3.775976 -21.216231 -5.611960 0.134396 -3.504447 0.000000 -0.000000 -0.000000 -23.918033 7.154230 -18.085060 54.473416 5.740494 -9.979539 -22.549470 4.644236 16.036864 -9.428446 -0.005817 0.727571 -0.000000 -0.000001 -0.000000 
0.652533 176.317108 0.938389 -1.354691 -2.382329 -0.693616 0.964892 0.596292 0.273504 3.129097 0.858969 0.683296 3.126743 0.843770 0.708022 1.187293 -0.569581 3.848262 -8.177449 3.644164 -5.922983 -0.000000 0.000000 -0.000000 -0.000000 0.000000 -0.000000 -0.000000 0.000000 -0.000000 -5.931614 11.590834 43.704113 -80.279195 -23.427631 1.001254 0.000005 -52.004705 -0.000003 -2.958302 -18.758768 12.196096 -1.428221 1.348564 -30.167894 0.248920 1.691121 -16.744677 0.034737 0.637665 -6.235137 -0.000003 0.000001 -0.000005 -6.116579 -3.608370 17.999258 21.636986 27.729569 -6.724446 -1.347905 -24.629346 13.788600 0.000002 0.000002 0.000001 -1.626921 2.032013 -38.437935 0.235059 1.644390 -16.268747 0.051223 -0.773778 7.573346 -0.000001 -0.000004 0.000001 0.822200 5.245325 -27.853559 0.332288 1.946738 -19.371120 0.258166 1.721570 -17.055508 0.000000 -0.000001 -0.000002 -0.168475 8.389154 -19.344773 0.831212 3.009860 -30.870075 0.105391 1.107287 -10.871738 -0.000002 0.000001 -0.000001 -5.339394 -11.837585 -40.852079 -107.248108 29.691037 18.635111 0.000026 61.788412 -0.000031 -11.286820 7.058995 -14.827398 0.044963 -2.111433 0.865929 0.737397 -2.516873 32.655295 0.193063 -1.328310 16.537288 0.000001 0.000002 -0.000002 -6.360183 -1.807614 -19.814054 10.365404 1.969273 -9.760544 -4.128819 -18.154967 -6.614133 -0.000003 -0.000001 0.000003 -1.049259 0.107314 19.222780 0.921179 -2.782554 36.629068 0.058127 -0.734218 9.051157 -0.000002 -0.000004 0.000002 0.107557 -7.124580 0.513932 0.218273 -1.410484 17.593063 0.230019 -1.446909 18.063253 0.000001 0.000002 0.000000 -0.746994 -10.767030 -5.605905 0.284159 -1.603437 20.097955 0.144093 -1.150662 14.274090 0.000001 0.000001 0.000001 -20.952519 1.695484 26.817298 40.790067 -8.230344 10.188318 -14.802997 -3.198753 -20.607463 -6.437641 0.023621 -1.471273 -0.000000 0.000000 0.000001 -21.815711 5.234063 -18.568547 49.252778 5.498994 -10.109099 -20.511825 4.501960 16.538043 -9.324157 0.000003 0.000004 -0.000000 -0.000000 0.000001 
1.760797 184.533020 2.587477 -0.749145 -2.234885 -0.849656 0.889931 0.616274 0.183695 3.058391 0.990221 0.524135 3.055893 0.981268 0.552048 0.279123 -0.848373 4.507283 -6.825280 3.210261 -6.160745 -0.000000 0.000000 -0.000000 -0.000000 0.000000 -0.000000 -0.000000 0.000000 -0.000000 -5.026312 11.288864 41.237393 -71.708203 -20.745981 0.023626 -0.000001 -39.786948 -0.000000 -12.240119 -20.401152 14.529491 -0.512737 3.337493 -34.511884 0.262674 1.736201 -17.204924 0.037729 0.664599 -6.499573 0.000001 0.000000 0.000000 -6.116572 -3.608382 17.999261 20.720823 26.424298 -5.587195 -0.649924 -30.914269 18.689093 -0.000002 0.000001 -0.000000 0.375523 4.831450 -44.650453 0.248799 1.690739 -16.740780 0.005816 -0.261272 2.550318 -0.000002 -0.000000 0.000003 2.614452 8.208118 -30.927090 0.417813 2.174608 -21.749170 0.285857 1.809338 -17.954465 -0.000000 0.000000 0.000002 3.230377 10.294322 -25.298421 0.893040 3.110785 -32.028065 0.108386 1.122924 -11.027159 0.000000 0.000000 -0.000001 -6.044291 -13.391136 -41.210401 -98.258746 26.252886 17.049448 0.000036 51.579369 -0.000047 -17.083773 2.211732 -11.762767 -0.003850 -2.604891 13.293193 0.875045 -2.719455 35.667528 0.220791 -1.418363 17.694708 0.000001 -0.000002 0.000002 -6.360189 -1.807627 -19.814070 11.079322 -9.948409 -6.964266 -3.759601 -19.413886 -7.111724 -0.000002 -0.000000 -0.000001 -0.315726 -2.659924 26.660979 1.068289 -2.969947 39.559933 0.072771 -0.820984 10.131599 0.000004 0.000003 -0.000000 0.825126 -5.909798 14.206910 0.218714 -1.411834 17.610755 0.256863 -1.526815 19.098775 0.000000 -0.000001 -0.000004 -0.014866 -7.796365 4.353547 0.454243 -2.007964 25.491750 0.174291 -1.263398 15.707529 0.000000 0.000001 -0.000000 -17.295309 5.421604 24.912000 29.971563 -7.229823 10.640394 -5.858334 -5.179382 -18.618729 -9.522662 0.023295 -1.447590 -0.000000 0.000000 0.000000 -18.467209 0.408714 -19.278253 36.740438 5.338791 -10.465454 -9.238216 8.269103 17.085768 -12.788817 -0.004654 0.645206 -0.000000 0.000000 0.000000 
2.831439 194.893295 3.754232 0.305179 -2.794836 -0.853360 0.616321 0.586037 0.164739 2.642485 1.006850 0.472926 2.640084 0.998407 0.500572 -1.020014 -1.031609 4.918613 -4.081038 3.255241 -7.188202 0.000000 0.000000 -0.000000 0.000000 0.000000 -0.000000 0.000000 0.000000 -0.000000 -4.651551 12.271885 36.553492 -59.107193 -18.588814 0.257209 -0.000010 -29.598061 -0.000005 -20.506034 -19.587096 10.131984 -0.074062 4.224772 -38.396240 0.335015 1.954434 -19.450946 0.046858 0.740336 -7.244158 -0.000001 -0.000000 -0.000001 -6.116591 -3.608374 17.999247 20.292226 25.464569 -5.072182 -0.402734 -31.748857 19.279437 0.000004 0.000001 0.000002 0.559800 5.211350 -48.669917 0.272327 1.767044 -17.520648 0.000115 -0.037314 0.364055 -0.000000 -0.000000 0.000000 2.320227 7.654030 -31.709963 0.550394 2.481001 -25.012364 0.326905 1.931366 -19.212096 -0.000002 0.000000 0.000001 3.374886 10.527414 -25.560996 0.936332 3.178859 -32.817263 0.120102 1.181421 -11.609435 -0.000001 -0.000001 0.000002 -5.364969 -14.853158 -35.509351 -84.200106 26.958048 13.848001 0.000028 39.827062 -0.000020 -24.128169 3.083312 -10.990444 0.765323 -4.917721 22.950998 1.096487 -3.003736 40.101021 0.257672 -1.529127 19.128556 0.000002 0.000000 -0.000000 -6.360188 -1.807602 -19.814066 13.014900 -19.267096 -3.676905 -3.776673 -20.658279 -5.894370 0.000001 -0.000002 -0.000002 0.395132 -4.071420 26.202808 1.379948 -3.310735 45.244239 0.092735 -0.925710 11.440486 0.000001 0.000001 0.000001 0.800067 -4.948986 24.241287 0.349170 -1.770935 22.305385 0.308028 -1.667196 20.934267 0.000000 -0.000000 -0.000003 -1.171502 -5.636225 13.118330 0.623867 -2.330355 29.970648 0.229035 -1.443949 18.025171 -0.000001 0.000000 -0.000001 -14.821155 9.254900 22.146996 18.917283 -7.522787 10.173232 11.728227 -6.573888 -10.725794 -16.723981 0.456871 -6.190054 0.000000 0.000000 0.000001 -15.503467 -4.179965 -18.619944 22.167881 6.394621 -9.426849 10.113761 10.625499 10.684041 -18.572220 -0.440895 6.113650 -0.000000 0.000000 0.000000 
